<svg width="24" height="28" viewBox="0 0 24 28" fill="none" xmlns="http://www.w3.org/2000/svg">
<path fill-rule="evenodd" clip-rule="evenodd" d="M20 3.2H21.3333C22.8 3.2 24 4.415 24 5.9V24.8C24 26.285 22.8 27.5 21.3333 27.5H2.66667C1.2 27.5 0 26.285 0 24.8V5.9C0 4.415 1.2 3.2 2.66667 3.2H4V1.85C4 1.04 4.53333 0.5 5.33333 0.5C6.13333 0.5 6.66667 1.04 6.66667 1.85V3.2H17.3333V1.85C17.3333 1.04 17.8667 0.5 18.6667 0.5C19.4667 0.5 20 1.04 20 1.85V3.2ZM20 24.8C20.8 24.8 21.3333 24.26 21.3333 23.45V11.3C21.3333 10.49 20.8 9.95 20 9.95H4C3.2 9.95 2.66667 10.49 2.66667 11.3V23.45C2.66667 24.26 3.2 24.8 4 24.8H20Z" fill="#2B67DB" fill-opacity="0.5"/>
</svg>
