<svg width="42" height="42" viewBox="0 0 42 42" fill="none" xmlns="http://www.w3.org/2000/svg">
<g filter="url(#filter0_d_23_201)">
<circle cx="21" cy="19" r="15" fill="white"/>
</g>
<path d="M26 21.2467C26.0011 21.4458 25.9266 21.6371 25.7929 21.7785C25.6588 21.9203 25.4763 22 25.2859 22C25.0955 22 24.913 21.9203 24.7789 21.7785L21.0015 17.8092L17.224 21.7785C16.944 22.0721 16.49 22.0721 16.21 21.7785C15.93 21.4848 15.93 21.0087 16.21 20.715L20.4945 16.2215C20.6285 16.0797 20.8111 16 21.0015 16C21.1919 16 21.3744 16.0797 21.5084 16.2215L25.7929 20.715C25.9266 20.8563 26.0011 21.0477 26 21.2467Z" fill="#FF843E"/>
<defs>
<filter id="filter0_d_23_201" x="0" y="0" width="42" height="42" filterUnits="userSpaceOnUse" color-interpolation-filters="sRGB">
<feFlood flood-opacity="0" result="BackgroundImageFix"/>
<feColorMatrix in="SourceAlpha" type="matrix" values="0 0 0 0 0 0 0 0 0 0 0 0 0 0 0 0 0 0 127 0" result="hardAlpha"/>
<feOffset dy="2"/>
<feGaussianBlur stdDeviation="3"/>
<feColorMatrix type="matrix" values="0 0 0 0 0 0 0 0 0 0 0 0 0 0 0 0 0 0 0.15 0"/>
<feBlend mode="normal" in2="BackgroundImageFix" result="effect1_dropShadow_23_201"/>
<feBlend mode="normal" in="SourceGraphic" in2="effect1_dropShadow_23_201" result="shape"/>
</filter>
</defs>
</svg>
