<svg width="21" height="20" viewBox="0 0 21 20" fill="none" xmlns="http://www.w3.org/2000/svg">
<path fill-rule="evenodd" clip-rule="evenodd" d="M15.282 0.000413693C18.2707 0.000413693 20.6587 2.50781 20.9653 5.9638C20.9891 6.11645 21.0885 6.91985 20.7864 8.2296C20.351 10.1198 19.3454 11.8382 17.8789 13.1997L10.4372 20L3.12103 13.1993C1.65457 11.8382 0.648926 10.1194 0.213553 8.2296C-0.0885435 6.91943 0.0108089 6.11604 0.0350412 5.96339C0.341176 2.50739 2.72967 0 5.71792 0C7.6771 0 9.42546 1.07519 10.442 2.85697C11.4678 1.09794 13.2909 0.000413693 15.282 0.000413693ZM3.23047 6.65136C3.23047 4.82656 4.67997 3.34181 6.46145 3.34181C6.68439 3.34181 6.86532 3.15689 6.86532 2.92812C6.86532 2.69935 6.68479 2.51443 6.46145 2.51443C4.2345 2.51443 2.42273 4.37026 2.42273 6.65136C2.42273 6.88013 2.60326 7.06505 2.8266 7.06505C3.04994 7.06505 3.23047 6.88013 3.23047 6.65136Z" fill="#93999D"/>
</svg>
