<svg width="20" height="28" viewBox="0 0 20 28" fill="none" xmlns="http://www.w3.org/2000/svg">
<path fill-rule="evenodd" clip-rule="evenodd" d="M0.5 10.4404C0.5 4.95929 4.87393 0.5 10.2496 0.5C15.6255 0.5 19.9995 4.95929 20 10.4404C20 11.8701 19.7132 13.2351 19.1473 14.4979C16.7088 19.9368 12.0352 25.6782 10.661 27.308C10.558 27.4298 10.4079 27.5 10.2499 27.5C10.0919 27.5 9.9417 27.4298 9.83871 27.308C8.46403 25.6779 3.79034 19.9362 1.35267 14.4979C0.787024 13.2351 0.5 11.8701 0.5 10.4404ZM5.18507 10.4401C5.18507 13.2871 7.45714 15.6035 10.2496 15.6035C13.0423 15.6035 15.3144 13.2871 15.3141 10.4401C15.3141 7.59292 13.042 5.27651 10.2496 5.27651C7.45714 5.27651 5.18507 7.59292 5.18507 10.4401Z" fill="#2B67DB" fill-opacity="0.5"/>
</svg>
