<svg width="24" height="24" viewBox="0 0 24 24" fill="none" xmlns="http://www.w3.org/2000/svg">
<path fill-rule="evenodd" clip-rule="evenodd" d="M20.0181 16.0342C18.9883 16.0349 17.9988 16.4346 17.2574 17.1494L8.07249 12.5292C8.08554 12.3702 8.08554 12.2103 8.07249 12.0513C8.08554 11.8922 8.08554 11.7324 8.07249 11.5733L17.3635 6.95318C18.7715 8.21173 20.8696 8.30806 22.3869 7.18383C23.9043 6.0596 24.4235 4.024 23.6302 2.31002C22.8369 0.596051 20.9492 -0.324918 19.1105 0.104969C17.2718 0.534856 15.9878 2.19737 16.0362 4.0855C16.0232 4.24454 16.0232 4.40439 16.0362 4.56344L6.7452 9.18361C5.17554 7.6703 2.68111 7.70092 1.14904 9.25229C-0.383015 10.8037 -0.383015 13.2989 1.14904 14.8503C2.68111 16.4017 5.17554 16.4323 6.7452 14.919L16.0362 19.5392C16.0232 19.6982 16.0232 19.8581 16.0362 20.0171C16.0362 22.2168 17.819 24 20.0181 24C22.2173 24 24 22.2168 24 20.0171C24 17.8174 22.2173 16.0342 20.0181 16.0342Z" fill="#93999D"/>
</svg>
