<svg width="30" height="30" viewBox="0 0 30 30" fill="none" xmlns="http://www.w3.org/2000/svg">
<mask id="mask0_24_90" style="mask-type:alpha" maskUnits="userSpaceOnUse" x="7" y="1" width="16" height="28">
<path fill-rule="evenodd" clip-rule="evenodd" d="M7.5 1.5H22.5V28.5H7.5V1.5Z" fill="white"/>
</mask>
<g mask="url(#mask0_24_90)">
<path fill-rule="evenodd" clip-rule="evenodd" d="M19.6071 10.1783H17.7642C17.4881 10.1783 17.2642 9.93681 17.2642 9.63898C17.2642 9.34116 17.4881 9.09964 17.7642 9.09964H19.6071C19.8833 9.09964 20.1071 9.34116 20.1071 9.63898C20.1071 9.93681 19.8833 10.1783 19.6071 10.1783V10.1783ZM15.9214 10.1783H14.0785C13.8024 10.1783 13.5785 9.93681 13.5785 9.63898C13.5785 9.34116 13.8024 9.09964 14.0785 9.09964H15.9214C16.1975 9.09964 16.4214 9.34116 16.4214 9.63898C16.4214 9.93681 16.1975 10.1783 15.9214 10.1783V10.1783ZM12.2357 10.1783H10.3928C10.1167 10.1783 9.8928 9.93681 9.8928 9.63898C9.8928 9.34116 10.1167 9.09964 10.3928 9.09964H12.2357C12.5118 9.09964 12.7357 9.34116 12.7357 9.63898C12.7357 9.93681 12.5118 10.1783 12.2357 10.1783V10.1783ZM21.45 10.1783C21.1738 10.1783 20.95 9.93681 20.95 9.63898C20.95 9.34116 21.1738 9.09964 21.45 9.09964H22.5V1.5H17.805C17.805 3.17123 16.5492 4.52585 15 4.52585C13.4508 4.52585 12.1949 3.17123 12.1949 1.5H7.5V9.09964H8.55C8.8261 9.09964 9.05 9.34116 9.05 9.63898C9.05 9.93681 8.8261 10.1783 8.55 10.1783H7.5V28.5H12.1949C12.1949 26.8288 13.4508 25.4741 15 25.4741C16.5492 25.4741 17.805 26.8288 17.805 28.5H22.5V10.1783H21.45Z" fill="#2B67DB" fill-opacity="0.5"/>
</g>
</svg>
